<?xml version="1.0" encoding="UTF-8"?>
<!DOCTYPE svg PUBLIC "-//W3C//DTD SVG 1.1//EN" "http://www.w3.org/Graphics/SVG/1.1/DTD/svg11.dtd">
<svg xmlns="http://www.w3.org/2000/svg" version="1.1" width="553px" height="451px" style="shape-rendering:geometricPrecision; text-rendering:geometricPrecision; image-rendering:optimizeQuality; fill-rule:evenodd; clip-rule:evenodd" xmlns:xlink="http://www.w3.org/1999/xlink">
<g><path style="opacity:1" fill="#f9faf9" d="M 423.5,7.5 C 424.833,8.16667 424.833,8.16667 423.5,7.5 Z"/></g>
<g><path style="opacity:1" fill="#f9faf9" d="M 465.5,32.5 C 466.833,33.1667 466.833,33.1667 465.5,32.5 Z"/></g>
<g><path style="opacity:1" fill="#f9faf9" d="M 431.5,45.5 C 432.833,46.1667 432.833,46.1667 431.5,45.5 Z"/></g>
<g><path style="opacity:1" fill="#f9faf9" d="M 174.5,62.5 C 175.833,63.1667 175.833,63.1667 174.5,62.5 Z"/></g>
<g><path style="opacity:1" fill="#7d8791" d="M 242.5,63.5 C 238.761,65.1016 234.761,66.1016 230.5,66.5C 234.163,64.5841 238.163,63.5841 242.5,63.5 Z"/></g>
<g><path style="opacity:1" fill="#57616e" d="M 230.5,66.5 C 228.786,67.7384 226.786,68.405 224.5,68.5C 224.649,69.552 224.483,70.552 224,71.5C 221.413,70.3042 218.58,70.3042 215.5,71.5C 220.105,68.8539 225.105,67.1873 230.5,66.5 Z"/></g>
<g><path style="opacity:1" fill="#7d8695" d="M 306.5,68.5 C 308.553,68.4021 310.22,69.0687 311.5,70.5C 310.417,70.5394 309.417,70.8728 308.5,71.5C 308.912,70.2176 308.246,69.2176 306.5,68.5 Z"/></g>
<g><path style="opacity:1" fill="#bfc3cc" d="M 204.5,76.5 C 204.027,77.9063 203.027,78.573 201.5,78.5C 201.973,77.0937 202.973,76.427 204.5,76.5 Z"/></g>
<g><path style="opacity:1" fill="#f9faf9" d="M 370.5,80.5 C 371.833,81.1667 371.833,81.1667 370.5,80.5 Z"/></g>
<g><path style="opacity:1" fill="#a2aeb3" d="M 196.5,81.5 C 196.027,82.9063 195.027,83.573 193.5,83.5C 193.973,82.0937 194.973,81.427 196.5,81.5 Z"/></g>
<g><path style="opacity:1" fill="#e6f2f3" d="M 328.5,99.5 C 328.062,99.4346 327.728,99.6012 327.5,100C 345.364,118.23 355.864,140.063 359,165.5C 360.971,190.843 359.138,215.843 353.5,240.5C 350.402,244.104 347.902,248.104 346,252.5C 340.009,274.133 334.175,295.799 328.5,317.5C 325.207,333.914 331.207,345.581 346.5,352.5C 347.624,353.914 348.624,355.414 349.5,357C 346.072,357.701 342.738,357.368 339.5,356C 332.833,350 326.167,344 319.5,338C 315.495,336.902 311.995,337.735 309,340.5C 304.788,351.702 299.288,362.202 292.5,372C 276.11,386.16 258.776,387.16 240.5,375C 233.427,366.938 227.594,358.105 223,348.5C 218.669,343.172 213.169,341.338 206.5,343C 199.088,348.753 191.422,354.086 183.5,359C 178.905,360.393 174.239,360.726 169.5,360C 167.714,359.215 166.214,358.049 165,356.5C 162.376,350.431 160.71,344.098 160,337.5C 157.683,334.903 154.85,334.07 151.5,335C 147.983,336.924 144.316,338.591 140.5,340C 137.438,340.741 134.438,340.575 131.5,339.5C 130.369,337.926 130.202,336.259 131,334.5C 134.909,327.584 139.242,320.918 144,314.5C 146.086,312.751 148.419,311.417 151,310.5C 153.21,312.111 155.71,312.778 158.5,312.5C 157.219,322.544 161.552,328.211 171.5,329.5C 169.765,337.729 173.098,342.562 181.5,344C 187.452,345.33 193.452,345.663 199.5,345C 203.265,343.403 205.265,340.57 205.5,336.5C 208.863,329.234 210.697,321.567 211,313.5C 195.582,289.662 179.915,265.995 164,242.5C 163.333,240.833 163.333,239.167 164,237.5C 170.812,221.968 169.812,206.968 161,192.5C 157.998,188.666 154.831,185 151.5,181.5C 152.833,181.5 154.167,181.5 155.5,181.5C 156.516,174.055 158.016,167.055 160,160.5C 161,159.833 162,159.167 163,158.5C 163.938,153.027 165.771,147.527 168.5,142C 167.813,140.838 167.647,139.672 168,138.5C 169.084,137.335 169.917,136.002 170.5,134.5C 171.991,133.756 173.491,133.09 175,132.5C 176.455,124.029 180.789,117.363 188,112.5C 189.7,107.967 192.867,104.967 197.5,103.5C 198.333,102.5 199.167,101.5 200,100.5C 198.045,105.587 197.045,110.921 197,116.5C 199.302,120.787 202.969,122.787 208,122.5C 219.996,119.833 229.996,113.833 238,104.5C 239.322,101.363 240.488,98.1963 241.5,95C 240.465,90.9427 238.131,87.9427 234.5,86C 236.901,85.205 239.068,84.0383 241,82.5C 241.333,82.8333 241.667,83.1667 242,83.5C 249.406,82.1283 256.906,81.1283 264.5,80.5C 272.305,81.4439 279.971,81.9439 287.5,82C 295.19,83.9975 302.857,86.3309 310.5,89C 316.126,93.3072 322.126,96.8072 328.5,99.5 Z"/></g>
<g><path style="opacity:1" fill="#7a848e" d="M 189.5,86.5 C 188.089,88.914 186.089,90.5806 183.5,91.5C 184.911,89.086 186.911,87.4194 189.5,86.5 Z"/></g>
<g><path style="opacity:1" fill="#f9faf9" d="M 357.5,90.5 C 358.833,91.1667 358.833,91.1667 357.5,90.5 Z"/></g>
<g><path style="opacity:1" fill="#f9faf9" d="M 502.5,93.5 C 503.833,94.1667 503.833,94.1667 502.5,93.5 Z"/></g>
<g><path style="opacity:1" fill="#878e97" d="M 352.5,97.5 C 354.5,98.1667 355.833,99.5 356.5,101.5C 355.234,100.91 353.901,100.41 352.5,100C 353.598,99.2303 353.598,98.397 352.5,97.5 Z"/></g>
<g><path style="opacity:1" fill="#f9faf9" d="M 407.5,99.5 C 408.833,100.167 408.833,100.167 407.5,99.5 Z"/></g>
<g><path style="opacity:1" fill="#a2a9b2" d="M 178.5,95.5 C 176.57,99.1002 173.903,102.1 170.5,104.5C 172.43,100.9 175.097,97.8998 178.5,95.5 Z"/></g>
<g><path style="opacity:1" fill="#f9faf9" d="M 389.5,102.5 C 390.833,103.167 390.833,103.167 389.5,102.5 Z"/></g>
<g><path style="opacity:1" fill="#f9faf9" d="M 424.5,105.5 C 425.833,106.167 425.833,106.167 424.5,105.5 Z"/></g>
<g><path style="opacity:1" fill="#f9faf9" d="M 49.5,110.5 C 50.8333,111.167 50.8333,111.167 49.5,110.5 Z"/></g>
<g><path style="opacity:1" fill="#abb1ba" d="M 362.5,108.5 C 364.262,109.262 365.262,110.596 365.5,112.5C 363.738,111.738 362.738,110.404 362.5,108.5 Z"/></g>
<g><path style="opacity:1" fill="#bec1cc" d="M 365.5,112.5 C 366.906,112.973 367.573,113.973 367.5,115.5C 366.094,115.027 365.427,114.027 365.5,112.5 Z"/></g>
<g><path style="opacity:1" fill="#a4acb9" d="M 161.5,116.5 C 161.262,118.404 160.262,119.738 158.5,120.5C 158.738,118.596 159.738,117.262 161.5,116.5 Z"/></g>
<g><path style="opacity:1" fill="#f9faf9" d="M 479.5,121.5 C 480.833,122.167 480.833,122.167 479.5,121.5 Z"/></g>
<g><path style="opacity:1" fill="#f9faf9" d="M 120.5,132.5 C 121.833,133.167 121.833,133.167 120.5,132.5 Z"/></g>
<g><path style="opacity:1" fill="#b8c5c9" d="M 152.5,133.5 C 152.34,135.153 151.674,136.486 150.5,137.5C 150.229,135.62 150.896,134.287 152.5,133.5 Z"/></g>
<g><path style="opacity:1" fill="#23374e" d="M 306.5,68.5 C 308.246,69.2176 308.912,70.2176 308.5,71.5C 309.417,70.8728 310.417,70.5394 311.5,70.5C 327.424,76.2805 341.091,85.2805 352.5,97.5C 353.598,98.397 353.598,99.2303 352.5,100C 353.901,100.41 355.234,100.91 356.5,101.5C 359.219,103.219 361.219,105.553 362.5,108.5C 362.738,110.404 363.738,111.738 365.5,112.5C 365.427,114.027 366.094,115.027 367.5,115.5C 378.298,131.043 384.631,148.376 386.5,167.5C 386.549,171.078 387.215,174.411 388.5,177.5C 388.5,179.167 388.5,180.833 388.5,182.5C 388.215,184.288 388.548,185.955 389.5,187.5C 390.107,187.376 390.44,187.043 390.5,186.5C 391.496,186.586 392.329,186.252 393,185.5C 394.107,188.113 395.94,189.78 398.5,190.5C 387.299,196.899 380.466,206.566 378,219.5C 375.701,226.357 374.201,233.357 373.5,240.5C 374.5,240.5 375.5,240.5 376.5,240.5C 378.65,241.67 380.984,242.67 383.5,243.5C 385.283,241.155 386.283,238.488 386.5,235.5C 383.582,225.712 385.582,217.212 392.5,210C 397.906,206.268 403.573,202.935 409.5,200C 426.073,196.536 438.239,202.369 446,217.5C 447.506,222.746 447.839,228.079 447,233.5C 444.732,241.471 442.565,249.471 440.5,257.5C 440.833,258.167 441.167,258.833 441.5,259.5C 444.481,260.659 447.481,261.659 450.5,262.5C 451.747,264.178 453.414,265.511 455.5,266.5C 454.185,268.199 454.185,269.865 455.5,271.5C 453.565,270.85 451.565,270.517 449.5,270.5C 424.735,262.571 399.735,255.071 374.5,248C 369.238,246.561 363.904,246.228 358.5,247C 356.044,249.408 354.211,252.241 353,255.5C 348.201,273.562 343.201,291.562 338,309.5C 336.844,313.418 336.344,317.418 336.5,321.5C 336.738,325.138 338.404,327.971 341.5,330C 351.322,333.031 360.989,336.198 370.5,339.5C 370.539,340.756 370.039,341.756 369,342.5C 365.2,341.271 361.367,341.271 357.5,342.5C 349.803,341.101 342.47,338.601 335.5,335C 330.368,330.324 328.035,324.491 328.5,317.5C 334.175,295.799 340.009,274.133 346,252.5C 347.902,248.104 350.402,244.104 353.5,240.5C 357.309,239.339 361.143,238.339 365,237.5C 368.333,226.833 371.667,216.167 375,205.5C 376.413,202.339 378.08,199.339 380,196.5C 380.814,191.98 380.647,187.646 379.5,183.5C 375.054,123.092 343.387,85.9252 284.5,72C 236.455,66 197.955,82.1667 169,120.5C 156.904,139.26 151.071,159.594 151.5,181.5C 154.831,185 157.998,188.666 161,192.5C 169.812,206.968 170.812,221.968 164,237.5C 163.333,239.167 163.333,240.833 164,242.5C 179.915,265.995 195.582,289.662 211,313.5C 210.697,321.567 208.863,329.234 205.5,336.5C 195.946,339.304 186.613,338.471 177.5,334C 174.61,330.717 172.943,326.884 172.5,322.5C 167.677,321.847 164.51,319.18 163,314.5C 162.502,311.183 162.335,307.85 162.5,304.5C 160.011,304.702 157.677,304.202 155.5,303C 153.707,301.22 152.04,299.387 150.5,297.5C 145.639,302.294 139.806,305.294 133,306.5C 128.266,313.611 123.266,320.611 118,327.5C 113.053,340.768 117.553,349.268 131.5,353C 138.167,353.333 144.833,353.667 151.5,354C 154.315,358.763 157.315,363.43 160.5,368C 163.48,370.324 166.813,371.824 170.5,372.5C 171.263,373.268 172.263,373.768 173.5,374C 173.043,374.414 172.709,374.914 172.5,375.5C 174.162,376.327 175.495,377.493 176.5,379C 174.167,379.667 171.833,379.667 169.5,379C 167.767,377.084 165.6,375.918 163,375.5C 160.4,375.634 157.9,375.634 155.5,375.5C 151.621,372.753 148.954,369.086 147.5,364.5C 139.982,364.027 132.648,362.694 125.5,360.5C 124.486,359.326 123.153,358.66 121.5,358.5C 117.388,356.781 114.055,354.114 111.5,350.5C 111.573,348.973 110.906,347.973 109.5,347.5C 104.115,335.716 106.115,325.382 115.5,316.5C 116.906,316.027 117.573,315.027 117.5,313.5C 118.906,313.027 119.573,312.027 119.5,310.5C 119.328,309.508 119.662,308.842 120.5,308.5C 121.124,308.083 121.457,307.416 121.5,306.5C 121.253,305.287 120.586,304.62 119.5,304.5C 109.656,300.536 103.823,293.203 102,282.5C 101.222,277.416 101.389,272.416 102.5,267.5C 103.152,266.551 103.486,265.385 103.5,264C 103.392,262.319 102.725,261.152 101.5,260.5C 91.5,256.5 84.5,249.5 80.5,239.5C 80.6775,238.305 81.0109,237.138 81.5,236C 79.8599,232.672 78.6932,229.172 78,225.5C 77.7216,226.416 77.2216,227.082 76.5,227.5C 72.7188,206.07 80.0521,189.736 98.5,178.5C 100.027,178.573 101.027,177.906 101.5,176.5C 101.833,176.5 102.167,176.5 102.5,176.5C 104.153,176.34 105.486,175.674 106.5,174.5C 117.167,170.5 127.833,170.5 138.5,174.5C 139.172,175.267 140.005,175.934 141,176.5C 142.252,173.986 142.752,171.32 142.5,168.5C 142.674,166.139 143.007,163.806 143.5,161.5C 144.768,159.095 145.435,156.428 145.5,153.5C 146.244,148.244 147.911,142.911 150.5,137.5C 151.674,136.486 152.34,135.153 152.5,133.5C 153.698,128.772 155.698,124.439 158.5,120.5C 160.262,119.738 161.262,118.404 161.5,116.5C 163.738,111.929 166.738,107.929 170.5,104.5C 173.903,102.1 176.57,99.1002 178.5,95.5C 179.585,93.4131 181.251,92.0798 183.5,91.5C 186.089,90.5806 188.089,88.914 189.5,86.5C 190.436,85.0256 191.77,84.0256 193.5,83.5C 195.027,83.573 196.027,82.9063 196.5,81.5C 197.659,79.7497 199.326,78.7497 201.5,78.5C 203.027,78.573 204.027,77.9063 204.5,76.5C 207.921,74.2504 211.588,72.5837 215.5,71.5C 218.58,70.3042 221.413,70.3042 224,71.5C 224.483,70.552 224.649,69.552 224.5,68.5C 226.786,68.405 228.786,67.7384 230.5,66.5C 234.761,66.1016 238.761,65.1016 242.5,63.5C 264.319,59.6516 285.652,61.3183 306.5,68.5 Z"/></g>
<g><path style="opacity:1" fill="#b7cdd8" d="M 328.5,99.5 C 350.507,114.014 365.007,134.014 372,159.5C 373.876,170.335 376.21,181.002 379,191.5C 379.497,188.854 379.664,186.187 379.5,183.5C 380.647,187.646 380.814,191.98 380,196.5C 378.08,199.339 376.413,202.339 375,205.5C 371.667,216.167 368.333,226.833 365,237.5C 361.143,238.339 357.309,239.339 353.5,240.5C 359.138,215.843 360.971,190.843 359,165.5C 355.864,140.063 345.364,118.23 327.5,100C 327.728,99.6012 328.062,99.4346 328.5,99.5 Z"/></g>
<g><path style="opacity:1" fill="#f5f7f7" d="M 379.5,183.5 C 379.664,186.187 379.497,188.854 379,191.5C 376.21,181.002 373.876,170.335 372,159.5C 365.007,134.014 350.507,114.014 328.5,99.5C 322.126,96.8072 316.126,93.3072 310.5,89C 302.857,86.3309 295.19,83.9975 287.5,82C 279.971,81.9439 272.305,81.4439 264.5,80.5C 256.906,81.1283 249.406,82.1283 242,83.5C 241.667,83.1667 241.333,82.8333 241,82.5C 239.068,84.0383 236.901,85.205 234.5,86C 238.131,87.9427 240.465,90.9427 241.5,95C 240.488,98.1963 239.322,101.363 238,104.5C 229.996,113.833 219.996,119.833 208,122.5C 202.969,122.787 199.302,120.787 197,116.5C 197.045,110.921 198.045,105.587 200,100.5C 199.167,101.5 198.333,102.5 197.5,103.5C 192.867,104.967 189.7,107.967 188,112.5C 180.789,117.363 176.455,124.029 175,132.5C 173.491,133.09 171.991,133.756 170.5,134.5C 169.917,136.002 169.084,137.335 168,138.5C 167.647,139.672 167.813,140.838 168.5,142C 165.771,147.527 163.938,153.027 163,158.5C 162,159.167 161,159.833 160,160.5C 158.016,167.055 156.516,174.055 155.5,181.5C 154.167,181.5 152.833,181.5 151.5,181.5C 151.071,159.594 156.904,139.26 169,120.5C 197.955,82.1667 236.455,66 284.5,72C 343.387,85.9252 375.054,123.092 379.5,183.5 Z"/></g>
<g><path style="opacity:1" fill="#a4adb6" d="M 145.5,153.5 C 145.435,156.428 144.768,159.095 143.5,161.5C 143.294,158.505 143.96,155.838 145.5,153.5 Z"/></g>
<g><path style="opacity:1" fill="#f9faf9" d="M 407.5,157.5 C 408.833,158.167 408.833,158.167 407.5,157.5 Z"/></g>
<g><path style="opacity:1" fill="#21364f" d="M 308.5,150.5 C 321.79,149.948 329.624,156.281 332,169.5C 333.798,180.441 330.631,189.608 322.5,197C 313.224,201.525 305.391,199.691 299,191.5C 293.638,181.278 293.305,170.944 298,160.5C 300.738,156.26 304.238,152.926 308.5,150.5 Z"/></g>
<g><path style="opacity:1" fill="#eff2f4" d="M 305.5,159.5 C 314.818,159.655 316.818,163.488 311.5,171C 302.101,171.285 300.101,167.452 305.5,159.5 Z"/></g>
<g><path style="opacity:1" fill="#f9faf9" d="M 495.5,164.5 C 496.833,165.167 496.833,165.167 495.5,164.5 Z"/></g>
<g><path style="opacity:1" fill="#20374d" d="M 220.5,151.5 C 219.849,152.091 219.182,152.757 218.5,153.5C 215.712,152.04 213.545,152.707 212,155.5C 210.951,154.483 209.784,154.316 208.5,155C 209.167,155.333 209.833,155.667 210.5,156C 208.392,156.36 206.392,157.027 204.5,158C 208.241,158.502 211.908,158.502 215.5,158C 217.594,160.421 219.26,163.088 220.5,166C 219.285,168.096 218.451,167.929 218,165.5C 217.722,166.416 217.222,167.082 216.5,167.5C 216.531,159.381 213.031,157.381 206,161.5C 203.49,169.49 206.323,172.49 214.5,170.5C 210.263,174.2 205.93,174.2 201.5,170.5C 199.958,172.879 199.291,175.546 199.5,178.5C 199.833,180.5 200.167,182.5 200.5,184.5C 202.709,185.106 204.876,185.773 207,186.5C 207.167,186.167 207.333,185.833 207.5,185.5C 204.481,184.453 204.148,182.453 206.5,179.5C 208.5,178.833 210.5,178.167 212.5,177.5C 213.251,176.624 213.751,175.624 214,174.5C 214.725,175.059 215.558,175.392 216.5,175.5C 218.13,174.579 219.797,173.745 221.5,173C 226.688,165.34 228.022,165.674 225.5,174C 225.704,177.28 226.704,180.28 228.5,183C 227.033,184.098 226.199,185.598 226,187.5C 225,187.167 224,186.833 223,186.5C 221,188.5 219,190.5 217,192.5C 216.311,191.643 215.478,190.977 214.5,190.5C 211.548,191.047 208.881,192.214 206.5,194C 208.809,195.865 210.642,195.365 212,192.5C 214.172,193.585 216.172,194.919 218,196.5C 220.734,195.638 220.901,194.805 218.5,194C 219.522,191.684 221.022,191.184 223,192.5C 223.333,191.5 223.667,190.5 224,189.5C 225.566,188.939 226.899,189.606 228,191.5C 228.273,189.671 229.107,188.171 230.5,187C 229.613,182.961 229.946,178.961 231.5,175C 230.85,171.276 229.516,167.776 227.5,164.5C 227.709,163.914 228.043,163.414 228.5,163C 227.207,162.51 225.873,162.343 224.5,162.5C 224.329,159.203 224.995,158.869 226.5,161.5C 227.452,159.955 227.785,158.288 227.5,156.5C 231.438,159.435 233.605,163.435 234,168.5C 235.087,176.125 234.087,183.458 231,190.5C 221.958,201.463 212.291,202.129 202,192.5C 195.282,179.383 196.116,166.883 204.5,155C 209.319,150.756 214.652,149.589 220.5,151.5 Z"/></g>
<g><path style="opacity:1" fill="#f0f3f4" d="M 216.5,167.5 C 216.068,168.71 215.401,169.71 214.5,170.5C 206.323,172.49 203.49,169.49 206,161.5C 213.031,157.381 216.531,159.381 216.5,167.5 Z"/></g>
<g><path style="opacity:1" fill="#1e3451" d="M 220.5,151.5 C 223.719,152.069 226.052,153.736 227.5,156.5C 227.785,158.288 227.452,159.955 226.5,161.5C 224.995,158.869 224.329,159.203 224.5,162.5C 225.873,162.343 227.207,162.51 228.5,163C 228.043,163.414 227.709,163.914 227.5,164.5C 229.516,167.776 230.85,171.276 231.5,175C 229.946,178.961 229.613,182.961 230.5,187C 229.107,188.171 228.273,189.671 228,191.5C 226.899,189.606 225.566,188.939 224,189.5C 223.667,190.5 223.333,191.5 223,192.5C 221.022,191.184 219.522,191.684 218.5,194C 220.901,194.805 220.734,195.638 218,196.5C 216.172,194.919 214.172,193.585 212,192.5C 210.642,195.365 208.809,195.865 206.5,194C 208.881,192.214 211.548,191.047 214.5,190.5C 215.478,190.977 216.311,191.643 217,192.5C 219,190.5 221,188.5 223,186.5C 224,186.833 225,187.167 226,187.5C 226.199,185.598 227.033,184.098 228.5,183C 226.704,180.28 225.704,177.28 225.5,174C 228.022,165.674 226.688,165.34 221.5,173C 219.797,173.745 218.13,174.579 216.5,175.5C 215.558,175.392 214.725,175.059 214,174.5C 213.751,175.624 213.251,176.624 212.5,177.5C 210.5,178.167 208.5,178.833 206.5,179.5C 204.148,182.453 204.481,184.453 207.5,185.5C 207.333,185.833 207.167,186.167 207,186.5C 204.876,185.773 202.709,185.106 200.5,184.5C 200.167,182.5 199.833,180.5 199.5,178.5C 199.291,175.546 199.958,172.879 201.5,170.5C 205.93,174.2 210.263,174.2 214.5,170.5C 215.401,169.71 216.068,168.71 216.5,167.5C 217.222,167.082 217.722,166.416 218,165.5C 218.451,167.929 219.285,168.096 220.5,166C 219.26,163.088 217.594,160.421 215.5,158C 211.908,158.502 208.241,158.502 204.5,158C 206.392,157.027 208.392,156.36 210.5,156C 209.833,155.667 209.167,155.333 208.5,155C 209.784,154.316 210.951,154.483 212,155.5C 213.545,152.707 215.712,152.04 218.5,153.5C 219.182,152.757 219.849,152.091 220.5,151.5 Z"/></g>
<g><path style="opacity:1" fill="#bcc8d1" d="M 142.5,168.5 C 142.752,171.32 142.252,173.986 141,176.5C 140.005,175.934 139.172,175.267 138.5,174.5C 139.496,174.586 140.329,174.252 141,173.5C 141.198,171.618 141.698,169.952 142.5,168.5 Z"/></g>
<g><path style="opacity:1" fill="#c2cad1" d="M 386.5,167.5 C 388.011,170.544 388.678,173.878 388.5,177.5C 387.215,174.411 386.549,171.078 386.5,167.5 Z"/></g>
<g><path style="opacity:1" fill="#9aaab1" d="M 106.5,174.5 C 105.486,175.674 104.153,176.34 102.5,176.5C 103.287,174.896 104.62,174.229 106.5,174.5 Z"/></g>
<g><path style="opacity:1" fill="#bbc4cb" d="M 101.5,176.5 C 101.027,177.906 100.027,178.573 98.5,178.5C 98.9731,177.094 99.9731,176.427 101.5,176.5 Z"/></g>
<g><path style="opacity:1" fill="#f9faf9" d="M 402.5,177.5 C 403.833,178.167 403.833,178.167 402.5,177.5 Z"/></g>
<g><path style="opacity:1" fill="#f9faf9" d="M 41.5,179.5 C 42.8333,180.167 42.8333,180.167 41.5,179.5 Z"/></g>
<g><path style="opacity:1" fill="#a3b0b9" d="M 403.5,179.5 C 402.486,180.674 401.153,181.34 399.5,181.5C 400.287,179.896 401.62,179.229 403.5,179.5 Z"/></g>
<g><path style="opacity:1" fill="#eceff1" d="M 159.5,210.5 C 152.253,194.405 139.253,185.738 120.5,184.5C 105.613,186.366 94.7793,194.033 88,207.5C 86.8468,210.711 86.1802,214.044 86,217.5C 85.586,217.957 85.086,218.291 84.5,218.5C 83.5713,217.311 83.238,215.978 83.5,214.5C 87.6958,192.805 100.862,181.138 123,179.5C 142.715,181.054 154.881,191.388 159.5,210.5 Z"/></g>
<g><path style="opacity:1" fill="#c6cbdd" d="M 388.5,182.5 C 389.167,183.833 389.833,185.167 390.5,186.5C 390.44,187.043 390.107,187.376 389.5,187.5C 388.548,185.955 388.215,184.288 388.5,182.5 Z"/></g>
<g><path style="opacity:1" fill="#edf1f3" d="M 445.5,194.5 C 445.44,195.043 445.107,195.376 444.5,195.5C 424.425,184.197 406.258,186.531 390,202.5C 383.618,214.477 379.118,227.144 376.5,240.5C 375.5,240.5 374.5,240.5 373.5,240.5C 374.201,233.357 375.701,226.357 378,219.5C 380.466,206.566 387.299,196.899 398.5,190.5C 414.92,182.801 430.586,184.135 445.5,194.5 Z"/></g>
<g><path style="opacity:1" fill="#ccd1d6" d="M 452.5,190.5 C 454.027,190.427 455.027,191.094 455.5,192.5C 453.973,192.573 452.973,191.906 452.5,190.5 Z"/></g>
<g><path style="opacity:1" fill="#f9faf9" d="M 475.5,190.5 C 476.833,191.167 476.833,191.167 475.5,190.5 Z"/></g>
<g><path style="opacity:1" fill="#adb9bf" d="M 159.5,210.5 C 161.58,220.237 160.08,229.571 155,238.5C 154.444,240.885 154.61,243.218 155.5,245.5C 153.775,245.843 153.275,246.843 154,248.5C 170,271.833 186,295.167 202,318.5C 202.49,317.207 202.657,315.873 202.5,314.5C 203.147,315.274 203.48,316.274 203.5,317.5C 203.032,320.233 202.365,322.9 201.5,325.5C 199.871,324.375 198.371,323.041 197,321.5C 181.727,298.052 166.227,274.718 150.5,251.5C 149.349,250.269 148.183,250.269 147,251.5C 146.391,254.065 146.891,256.399 148.5,258.5C 142.361,255.408 136.027,254.908 129.5,257C 102.253,258.76 86.5866,246.093 82.5,219C 82.5085,217.293 82.8418,215.793 83.5,214.5C 83.238,215.978 83.5713,217.311 84.5,218.5C 85.086,218.291 85.586,217.957 86,217.5C 86.1802,214.044 86.8468,210.711 88,207.5C 94.7793,194.033 105.613,186.366 120.5,184.5C 139.253,185.738 152.253,194.405 159.5,210.5 Z"/></g>
<g><path style="opacity:1" fill="#e0e3e9" d="M 460.5,200.5 C 461.833,200.5 462.5,201.167 462.5,202.5C 461.5,202.167 460.833,201.5 460.5,200.5 Z"/></g>
<g><path style="opacity:1" fill="#f9faf9" d="M 44.5,201.5 C 45.8333,202.167 45.8333,202.167 44.5,201.5 Z"/></g>
<g><path style="opacity:1" fill="#f7e9e5" d="M 184.5,217.5 C 194.59,223.166 204.424,222.832 214,216.5C 216.578,211.934 215.744,208.267 211.5,205.5C 209.579,204.637 207.579,203.971 205.5,203.5C 196.937,200.994 189.27,202.661 182.5,208.5C 183.164,205.985 184.497,203.819 186.5,202C 194.705,200.04 202.872,200.207 211,202.5C 213.216,203.601 215.216,204.934 217,206.5C 217.667,209.833 217.667,213.167 217,216.5C 215.562,217.9 214.729,219.567 214.5,221.5C 212.064,221.317 209.897,221.984 208,223.5C 201.581,222.687 195.081,222.187 188.5,222C 186.365,221.124 185.031,219.624 184.5,217.5 Z"/></g>
<g><path style="opacity:1" fill="#ec9b8f" d="M 343.5,218.5 C 336.093,221.922 328.426,222.422 320.5,220C 319.944,219.617 319.611,219.117 319.5,218.5C 318.391,218.443 317.391,218.11 316.5,217.5C 312.265,211.718 313.598,207.218 320.5,204C 329.473,201.251 337.806,202.418 345.5,207.5C 346.557,209.003 347.224,210.67 347.5,212.5C 346.568,214.765 345.235,216.765 343.5,218.5 Z"/></g>
<g><path style="opacity:1" fill="#1f354b" d="M 246.5,197.5 C 248.604,197.201 250.604,197.534 252.5,198.5C 256.731,206.474 263.064,208.641 271.5,205C 274.426,203.493 276.426,201.159 277.5,198C 284.79,197.495 286.29,200.329 282,206.5C 275.546,214.155 267.38,216.655 257.5,214C 249.338,211.112 245.671,205.612 246.5,197.5 Z"/></g>
<g><path style="opacity:1" fill="#f69284" d="M 319.5,218.5 C 318.294,216.517 316.961,214.517 315.5,212.5C 316.246,211.264 316.579,209.93 316.5,208.5C 322.256,208.734 327.756,210.067 333,212.5C 334.059,212.37 334.892,211.87 335.5,211C 335.045,208.688 334.045,206.688 332.5,205C 333.333,204.833 334.167,204.667 335,204.5C 338.023,205.263 340.856,206.43 343.5,208C 345.799,210.798 345.799,213.465 343.5,216C 341.579,216.36 339.912,217.194 338.5,218.5C 332.178,219.527 325.845,219.527 319.5,218.5 Z"/></g>
<g><path style="opacity:1" fill="#f7e5e0" d="M 343.5,218.5 C 345.235,216.765 346.568,214.765 347.5,212.5C 347.224,210.67 346.557,209.003 345.5,207.5C 337.806,202.418 329.473,201.251 320.5,204C 313.598,207.218 312.265,211.718 316.5,217.5C 315.167,217.5 313.833,217.5 312.5,217.5C 312.226,212.608 312.893,207.941 314.5,203.5C 323.081,201.691 331.747,201.191 340.5,202C 341.623,203.044 342.956,203.71 344.5,204C 348.277,206.911 349.444,210.744 348,215.5C 346.871,217.141 345.371,218.141 343.5,218.5 Z"/></g>
<g><path style="opacity:1" fill="#f59285" d="M 205.5,203.5 C 207.579,203.971 209.579,204.637 211.5,205.5C 213.123,208.215 213.79,211.215 213.5,214.5C 212.5,214.5 211.5,214.5 210.5,214.5C 210.67,215.822 210.337,216.989 209.5,218C 202.833,220 196.167,220 189.5,218C 182.091,214.411 181.757,210.411 188.5,206C 193.932,203.795 199.598,202.962 205.5,203.5 Z"/></g>
<g><path style="opacity:1" fill="#1d344d" d="M 109.5,193.5 C 124.884,193.044 130.051,200.044 125,214.5C 117.631,222.399 110.298,222.399 103,214.5C 98.6555,205.371 100.822,198.371 109.5,193.5 Z"/></g>
<g><path style="opacity:1" fill="#eff2f2" d="M 111.5,200.5 C 120.316,200.967 122.316,204.8 117.5,212C 111.963,213.985 108.963,212.152 108.5,206.5C 108.628,204.045 109.628,202.045 111.5,200.5 Z"/></g>
<g><path style="opacity:1" fill="#abb7be" d="M 445.5,194.5 C 458.621,206.783 463.121,221.783 459,239.5C 457.203,246.558 455.203,253.558 453,260.5C 452.583,261.756 451.75,262.423 450.5,262.5C 447.481,261.659 444.481,260.659 441.5,259.5C 441.167,258.833 440.833,258.167 440.5,257.5C 442.565,249.471 444.732,241.471 447,233.5C 447.839,228.079 447.506,222.746 446,217.5C 438.239,202.369 426.073,196.536 409.5,200C 403.573,202.935 397.906,206.268 392.5,210C 385.582,217.212 383.582,225.712 386.5,235.5C 386.283,238.488 385.283,241.155 383.5,243.5C 380.984,242.67 378.65,241.67 376.5,240.5C 379.118,227.144 383.618,214.477 390,202.5C 406.258,186.531 424.425,184.197 444.5,195.5C 445.107,195.376 445.44,195.043 445.5,194.5 Z"/></g>
<g><path style="opacity:1" fill="#e4f1f3" d="M 416.5,252.5 C 419.071,247.548 420.405,242.214 420.5,236.5C 413.866,238.094 407.533,237.26 401.5,234C 399.622,232.457 398.122,230.624 397,228.5C 396.294,224.113 396.46,219.78 397.5,215.5C 406.965,209.691 415.465,211.024 423,219.5C 428.966,230.545 428.799,241.545 422.5,252.5C 420.484,253.694 418.484,253.694 416.5,252.5 Z"/></g>
<g><path style="opacity:1" fill="#e4a19a" d="M 205.5,203.5 C 199.598,202.962 193.932,203.795 188.5,206C 181.757,210.411 182.091,214.411 189.5,218C 196.167,220 202.833,220 209.5,218C 210.337,216.989 210.67,215.822 210.5,214.5C 211.5,214.5 212.5,214.5 213.5,214.5C 213.79,211.215 213.123,208.215 211.5,205.5C 215.744,208.267 216.578,211.934 214,216.5C 204.424,222.832 194.59,223.166 184.5,217.5C 182.874,214.754 182.207,211.754 182.5,208.5C 189.27,202.661 196.937,200.994 205.5,203.5 Z"/></g>
<g><path style="opacity:1" fill="#e8edf1" d="M 420.5,207.5 C 424.068,206.506 427.401,207.339 430.5,210C 438.678,216.197 441.511,224.364 439,234.5C 437.091,242.236 434.425,249.569 431,256.5C 430.5,256.167 430,255.833 429.5,255.5C 437.106,242.231 437.273,228.898 430,215.5C 427.253,212.246 424.086,209.58 420.5,207.5 Z"/></g>
<g><path style="opacity:1" fill="#f9faf9" d="M 518.5,219.5 C 519.833,220.167 519.833,220.167 518.5,219.5 Z"/></g>
<g><path style="opacity:1" fill="#4a5869" d="M 80.5,239.5 C 77.8037,236.079 76.4703,232.079 76.5,227.5C 77.2216,227.082 77.7216,226.416 78,225.5C 78.6932,229.172 79.8599,232.672 81.5,236C 81.0109,237.138 80.6775,238.305 80.5,239.5 Z"/></g>
<g><path style="opacity:1" fill="#b3c9d6" d="M 397.5,215.5 C 396.46,219.78 396.294,224.113 397,228.5C 398.122,230.624 399.622,232.457 401.5,234C 407.533,237.26 413.866,238.094 420.5,236.5C 420.405,242.214 419.071,247.548 416.5,252.5C 409.677,250.094 402.677,248.261 395.5,247C 394.328,246.581 393.328,245.915 392.5,245C 404.338,248.359 405.838,246.192 397,238.5C 393.84,233.272 392.84,227.605 394,221.5C 394.424,218.975 395.59,216.975 397.5,215.5 Z"/></g>
<g><path style="opacity:1" fill="#f9faf9" d="M 507.5,243.5 C 508.833,244.167 508.833,244.167 507.5,243.5 Z"/></g>
<g><path style="opacity:1" fill="#f9faf9" d="M 507.5,257.5 C 508.833,258.167 508.833,258.167 507.5,257.5 Z"/></g>
<g><path style="opacity:1" fill="#f9faf9" d="M 85.5,258.5 C 86.8333,259.167 86.8333,259.167 85.5,258.5 Z"/></g>
<g><path style="opacity:1" fill="#f9faf9" d="M 2.5,259.5 C 3.83333,260.167 3.83333,260.167 2.5,259.5 Z"/></g>
<g><path style="opacity:1" fill="#f9faf9" d="M 50.5,259.5 C 51.8333,260.167 51.8333,260.167 50.5,259.5 Z"/></g>
<g><path style="opacity:1" fill="#bdcbd7" d="M 101.5,260.5 C 102.725,261.152 103.392,262.319 103.5,264C 103.486,265.385 103.152,266.551 102.5,267.5C 102.702,265.05 102.369,262.717 101.5,260.5 Z"/></g>
<g><path style="opacity:1" fill="#e4f0f3" d="M 145.5,265.5 C 147.69,278.481 142.19,285.481 129,286.5C 121.519,287.568 116.519,284.568 114,277.5C 113.593,274.318 113.093,271.151 112.5,268C 112.684,266.624 113.351,265.791 114.5,265.5C 116.167,265.5 117.833,265.5 119.5,265.5C 119.5,266.5 119.5,267.5 119.5,268.5C 123.316,267.599 126.983,266.099 130.5,264C 135.689,263.092 140.689,263.592 145.5,265.5 Z"/></g>
<g><path style="opacity:1" fill="#f9faf9" d="M 532.5,274.5 C 533.833,275.167 533.833,275.167 532.5,274.5 Z"/></g>
<g><path style="opacity:1" fill="#697984" d="M 201.5,325.5 C 200.659,327.379 200.325,329.379 200.5,331.5C 199.5,331.5 198.5,331.5 197.5,331.5C 185.258,312.69 172.758,294.023 160,275.5C 159.809,277.708 159.309,279.708 158.5,281.5C 158.952,275.631 158.119,269.965 156,264.5C 153.522,262.361 151.022,260.361 148.5,258.5C 146.891,256.399 146.391,254.065 147,251.5C 148.183,250.269 149.349,250.269 150.5,251.5C 166.227,274.718 181.727,298.052 197,321.5C 198.371,323.041 199.871,324.375 201.5,325.5 Z"/></g>
<g><path style="opacity:1" fill="#eaeef0" d="M 155.5,245.5 C 171.525,268.203 187.191,291.203 202.5,314.5C 202.657,315.873 202.49,317.207 202,318.5C 186,295.167 170,271.833 154,248.5C 153.275,246.843 153.775,245.843 155.5,245.5 Z"/></g>
<g><path style="opacity:1" fill="#f9faf9" d="M 51.5,285.5 C 52.8333,286.167 52.8333,286.167 51.5,285.5 Z"/></g>
<g><path style="opacity:1" fill="#b6cbd7" d="M 114.5,265.5 C 113.351,265.791 112.684,266.624 112.5,268C 113.093,271.151 113.593,274.318 114,277.5C 116.519,284.568 121.519,287.568 129,286.5C 142.19,285.481 147.69,278.481 145.5,265.5C 151.448,270.688 152.948,277.022 150,284.5C 142.833,297.918 132.333,301.418 118.5,295C 114.115,291.205 111.615,286.371 111,280.5C 110.324,275.129 110.491,269.796 111.5,264.5C 112.791,264.263 113.791,264.596 114.5,265.5 Z"/></g>
<g><path style="opacity:1" fill="#aab6be" d="M 197.5,331.5 C 191.896,331.015 186.562,329.682 181.5,327.5C 181.09,323.896 180.923,320.229 181,316.5C 177.251,315.26 173.585,313.926 170,312.5C 170,308.5 170,304.5 170,300.5C 167.404,298.98 164.571,298.147 161.5,298C 157.452,293.162 156.452,287.662 158.5,281.5C 159.309,279.708 159.809,277.708 160,275.5C 172.758,294.023 185.258,312.69 197.5,331.5 Z"/></g>
<g><path style="opacity:1" fill="#eff1f2" d="M 449.5,270.5 C 449.5,271.833 449.5,273.167 449.5,274.5C 422.369,267.179 395.369,259.346 368.5,251C 363.232,249.55 359.732,251.383 358,256.5C 351.773,278.773 345.273,300.773 338.5,322.5C 337.833,322.167 337.167,321.833 336.5,321.5C 336.344,317.418 336.844,313.418 338,309.5C 343.201,291.562 348.201,273.562 353,255.5C 354.211,252.241 356.044,249.408 358.5,247C 363.904,246.228 369.238,246.561 374.5,248C 399.735,255.071 424.735,262.571 449.5,270.5 Z"/></g>
<g><path style="opacity:1" fill="#788690" d="M 449.5,270.5 C 451.565,270.517 453.565,270.85 455.5,271.5C 458.995,273.805 460.995,277.139 461.5,281.5C 455.632,304.767 448.965,327.767 441.5,350.5C 437.491,355.12 432.491,356.62 426.5,355C 407.976,349.203 389.309,344.036 370.5,339.5C 360.989,336.198 351.322,333.031 341.5,330C 338.404,327.971 336.738,325.138 336.5,321.5C 337.167,321.833 337.833,322.167 338.5,322.5C 366.492,330.471 394.492,338.637 422.5,347C 427.596,348.58 430.763,346.746 432,341.5C 437.663,321.516 443.33,301.516 449,281.5C 449.497,279.19 449.663,276.857 449.5,274.5C 449.5,273.167 449.5,271.833 449.5,270.5 Z"/></g>
<g><path style="opacity:1" fill="#c5cbd7" d="M 119.5,304.5 C 120.586,304.62 121.253,305.287 121.5,306.5C 121.457,307.416 121.124,308.083 120.5,308.5C 120.567,307.041 120.234,305.708 119.5,304.5 Z"/></g>
<g><path style="opacity:1" fill="#acb7be" d="M 449.5,274.5 C 449.663,276.857 449.497,279.19 449,281.5C 443.33,301.516 437.663,321.516 432,341.5C 430.763,346.746 427.596,348.58 422.5,347C 394.492,338.637 366.492,330.471 338.5,322.5C 345.273,300.773 351.773,278.773 358,256.5C 359.732,251.383 363.232,249.55 368.5,251C 395.369,259.346 422.369,267.179 449.5,274.5 Z"/></g>
<g><path style="opacity:1" fill="#f2f5f6" d="M 354.5,297.5 C 360.555,296.942 361.888,299.109 358.5,304C 353.795,304.106 352.462,301.939 354.5,297.5 Z"/></g>
<g><path style="opacity:1" fill="#1f374f" d="M 397.5,275.5 C 410.543,275.371 416.376,281.704 415,294.5C 413.703,299.63 410.536,302.963 405.5,304.5C 403.841,311.394 403.174,318.394 403.5,325.5C 397.035,325.135 390.702,323.968 384.5,322C 383.572,321.612 382.905,320.945 382.5,320C 384.892,313.882 387.559,307.882 390.5,302C 383.318,290.469 385.652,281.635 397.5,275.5 Z"/></g>
<g><path style="opacity:1" fill="#f5f6f5" d="M 365.5,257.5 C 370.766,257.541 372.599,260.208 371,265.5C 368.539,273.479 366.206,281.479 364,289.5C 360.527,293.786 358.027,293.286 356.5,288C 359.121,277.676 362.121,267.509 365.5,257.5 Z"/></g>
<g><path style="opacity:1" fill="#a9b3b9" d="M 119.5,310.5 C 119.573,312.027 118.906,313.027 117.5,313.5C 117.427,311.973 118.094,310.973 119.5,310.5 Z"/></g>
<g><path style="opacity:1" fill="#929da4" d="M 117.5,313.5 C 117.573,315.027 116.906,316.027 115.5,316.5C 115.427,314.973 116.094,313.973 117.5,313.5 Z"/></g>
<g><path style="opacity:1" fill="#f9faf9" d="M 511.5,329.5 C 512.833,330.167 512.833,330.167 511.5,329.5 Z"/></g>
<g><path style="opacity:1" fill="#d0d8de" d="M 455.5,334.5 C 455.59,337.152 454.924,339.485 453.5,341.5C 453.41,338.848 454.076,336.515 455.5,334.5 Z"/></g>
<g><path style="opacity:1" fill="#dddee1" d="M 109.5,347.5 C 110.906,347.973 111.573,348.973 111.5,350.5C 110.094,350.027 109.427,349.027 109.5,347.5 Z"/></g>
<g><path style="opacity:1" fill="#f9faf9" d="M 42.5,354.5 C 43.8333,355.167 43.8333,355.167 42.5,354.5 Z"/></g>
<g><path style="opacity:1" fill="#273c53" d="M 452.5,190.5 C 452.973,191.906 453.973,192.573 455.5,192.5C 457.993,194.658 459.66,197.324 460.5,200.5C 460.833,201.5 461.5,202.167 462.5,202.5C 468.142,213.465 469.975,225.132 468,237.5C 466,246.33 463.5,254.996 460.5,263.5C 462.808,266.975 465.308,270.308 468,273.5C 468.863,276.269 469.363,279.102 469.5,282C 465.101,299.546 460.434,317.046 455.5,334.5C 454.076,336.515 453.41,338.848 453.5,341.5C 451.072,358.397 441.406,365.564 424.5,363C 422.257,361.864 419.924,361.03 417.5,360.5C 416.909,359.849 416.243,359.182 415.5,358.5C 412.354,357.711 409.187,357.045 406,356.5C 405.721,358.12 404.888,359.453 403.5,360.5C 396.719,362.745 389.719,364.078 382.5,364.5C 376.006,377.846 365.339,383.346 350.5,381C 345.09,379.425 340.09,377.092 335.5,374C 329.526,371.737 323.859,372.237 318.5,375.5C 315.341,375.481 312.674,376.648 310.5,379C 311.167,379.333 311.833,379.667 312.5,380C 309.583,380.662 308.25,382.495 308.5,385.5C 302.562,392.475 295.229,397.475 286.5,400.5C 282.774,400.177 279.107,400.511 275.5,401.5C 276.894,402.687 276.727,403.354 275,403.5C 273.092,402.546 271.092,401.879 269,401.5C 265.649,402.034 262.316,402.367 259,402.5C 253.595,401.066 248.095,400.399 242.5,400.5C 238.345,399.258 234.678,397.258 231.5,394.5C 230.738,392.738 229.404,391.738 227.5,391.5C 222.423,388.26 218.09,384.093 214.5,379C 209.911,373.869 204.244,371.869 197.5,373C 191.5,375.667 185.5,378.333 179.5,381C 174.5,381.667 169.5,381.667 164.5,381C 161.102,379.643 158.102,377.81 155.5,375.5C 157.9,375.634 160.4,375.634 163,375.5C 165.6,375.918 167.767,377.084 169.5,379C 171.833,379.667 174.167,379.667 176.5,379C 175.495,377.493 174.162,376.327 172.5,375.5C 172.709,374.914 173.043,374.414 173.5,374C 172.263,373.768 171.263,373.268 170.5,372.5C 172.527,372.662 174.527,372.495 176.5,372C 183.167,369.333 189.833,366.667 196.5,364C 204.302,362.38 211.302,364.047 217.5,369C 220.734,372.145 223.734,375.478 226.5,379C 245.447,397.096 266.781,400.429 290.5,389C 297.793,384.041 304.126,378.041 309.5,371C 316.32,364.589 324.32,362.255 333.5,364C 339.949,366.391 346.282,369.058 352.5,372C 360.6,373.634 367.1,371.134 372,364.5C 373.504,361.316 375.004,358.149 376.5,355C 381.721,353.768 387.054,353.101 392.5,353C 380.701,349.564 369.035,346.064 357.5,342.5C 361.367,341.271 365.2,341.271 369,342.5C 370.039,341.756 370.539,340.756 370.5,339.5C 389.309,344.036 407.976,349.203 426.5,355C 432.491,356.62 437.491,355.12 441.5,350.5C 448.965,327.767 455.632,304.767 461.5,281.5C 460.995,277.139 458.995,273.805 455.5,271.5C 454.185,269.865 454.185,268.199 455.5,266.5C 453.414,265.511 451.747,264.178 450.5,262.5C 451.75,262.423 452.583,261.756 453,260.5C 455.203,253.558 457.203,246.558 459,239.5C 463.121,221.783 458.621,206.783 445.5,194.5C 430.586,184.135 414.92,182.801 398.5,190.5C 395.94,189.78 394.107,188.113 393,185.5C 392.329,186.252 391.496,186.586 390.5,186.5C 392.748,183.607 395.748,181.94 399.5,181.5C 401.153,181.34 402.486,180.674 403.5,179.5C 418.573,175.01 432.906,176.843 446.5,185C 448.996,186.331 450.996,188.164 452.5,190.5 Z"/></g>
<g><path style="opacity:1" fill="#747f8d" d="M 417.5,360.5 C 414.972,359.989 412.472,359.322 410,358.5C 407.914,359.418 405.747,360.085 403.5,360.5C 404.888,359.453 405.721,358.12 406,356.5C 409.187,357.045 412.354,357.711 415.5,358.5C 416.243,359.182 416.909,359.849 417.5,360.5 Z"/></g>
<g><path style="opacity:1" fill="#f9faf9" d="M 517.5,357.5 C 518.833,358.167 518.833,358.167 517.5,357.5 Z"/></g>
<g><path style="opacity:1" fill="#b1d4db" d="M 121.5,358.5 C 123.153,358.66 124.486,359.326 125.5,360.5C 123.62,360.771 122.287,360.104 121.5,358.5 Z"/></g>
<g><path style="opacity:1" fill="#b4cad6" d="M 205.5,336.5 C 205.265,340.57 203.265,343.403 199.5,345C 193.452,345.663 187.452,345.33 181.5,344C 173.098,342.562 169.765,337.729 171.5,329.5C 161.552,328.211 157.219,322.544 158.5,312.5C 155.71,312.778 153.21,312.111 151,310.5C 148.419,311.417 146.086,312.751 144,314.5C 139.242,320.918 134.909,327.584 131,334.5C 130.202,336.259 130.369,337.926 131.5,339.5C 134.438,340.575 137.438,340.741 140.5,340C 144.316,338.591 147.983,336.924 151.5,335C 154.85,334.07 157.683,334.903 160,337.5C 160.71,344.098 162.376,350.431 165,356.5C 166.214,358.049 167.714,359.215 169.5,360C 174.239,360.726 178.905,360.393 183.5,359C 191.422,354.086 199.088,348.753 206.5,343C 213.169,341.338 218.669,343.172 223,348.5C 227.594,358.105 233.427,366.938 240.5,375C 258.776,387.16 276.11,386.16 292.5,372C 299.288,362.202 304.788,351.702 309,340.5C 311.995,337.735 315.495,336.902 319.5,338C 326.167,344 332.833,350 339.5,356C 342.738,357.368 346.072,357.701 349.5,357C 348.624,355.414 347.624,353.914 346.5,352.5C 331.207,345.581 325.207,333.914 328.5,317.5C 328.035,324.491 330.368,330.324 335.5,335C 342.47,338.601 349.803,341.101 357.5,342.5C 369.035,346.064 380.701,349.564 392.5,353C 387.054,353.101 381.721,353.768 376.5,355C 375.004,358.149 373.504,361.316 372,364.5C 367.1,371.134 360.6,373.634 352.5,372C 346.282,369.058 339.949,366.391 333.5,364C 324.32,362.255 316.32,364.589 309.5,371C 304.126,378.041 297.793,384.041 290.5,389C 266.781,400.429 245.447,397.096 226.5,379C 223.734,375.478 220.734,372.145 217.5,369C 211.302,364.047 204.302,362.38 196.5,364C 189.833,366.667 183.167,369.333 176.5,372C 174.527,372.495 172.527,372.662 170.5,372.5C 166.813,371.824 163.48,370.324 160.5,368C 157.315,363.43 154.315,358.763 151.5,354C 144.833,353.667 138.167,353.333 131.5,353C 117.553,349.268 113.053,340.768 118,327.5C 123.266,320.611 128.266,313.611 133,306.5C 139.806,305.294 145.639,302.294 150.5,297.5C 152.04,299.387 153.707,301.22 155.5,303C 157.677,304.202 160.011,304.702 162.5,304.5C 162.335,307.85 162.502,311.183 163,314.5C 164.51,319.18 167.677,321.847 172.5,322.5C 172.943,326.884 174.61,330.717 177.5,334C 186.613,338.471 195.946,339.304 205.5,336.5 Z"/></g>
<g><path style="opacity:1" fill="#f9faf9" d="M 543.5,363.5 C 544.833,364.167 544.833,364.167 543.5,363.5 Z"/></g>
<g><path style="opacity:1" fill="#55636e" d="M 318.5,375.5 C 315.5,379.167 312.167,382.5 308.5,385.5C 308.25,382.495 309.583,380.662 312.5,380C 311.833,379.667 311.167,379.333 310.5,379C 312.674,376.648 315.341,375.481 318.5,375.5 Z"/></g>
<g><path style="opacity:1" fill="#f9faf9" d="M 43.5,389.5 C 44.8333,390.167 44.8333,390.167 43.5,389.5 Z"/></g>
<g><path style="opacity:1" fill="#9ca4b0" d="M 227.5,391.5 C 229.404,391.738 230.738,392.738 231.5,394.5C 229.596,394.262 228.262,393.262 227.5,391.5 Z"/></g>
<g><path style="opacity:1" fill="#404d5c" d="M 242.5,400.5 C 248.095,400.399 253.595,401.066 259,402.5C 262.316,402.367 265.649,402.034 269,401.5C 271.092,401.879 273.092,402.546 275,403.5C 276.727,403.354 276.894,402.687 275.5,401.5C 279.107,400.511 282.774,400.177 286.5,400.5C 276.973,404.589 266.973,405.923 256.5,404.5C 254.095,403.232 251.428,402.565 248.5,402.5C 246.214,402.405 244.214,401.738 242.5,400.5 Z"/></g>
<g><path style="opacity:1" fill="#9da6ae" d="M 248.5,402.5 C 251.428,402.565 254.095,403.232 256.5,404.5C 253.505,404.706 250.838,404.04 248.5,402.5 Z"/></g>
<g><path style="opacity:1" fill="#f9faf9" d="M 135.5,405.5 C 136.833,406.167 136.833,406.167 135.5,405.5 Z"/></g>
<g><path style="opacity:1" fill="#f9faf9" d="M 530.5,413.5 C 531.833,414.167 531.833,414.167 530.5,413.5 Z"/></g>
<g><path style="opacity:1" fill="#f9faf9" d="M 316.5,414.5 C 317.833,415.167 317.833,415.167 316.5,414.5 Z"/></g>
<g><path style="opacity:1" fill="#f9faf9" d="M 395.5,416.5 C 396.833,417.167 396.833,417.167 395.5,416.5 Z"/></g>
<g><path style="opacity:1" fill="#f9faf9" d="M 420.5,426.5 C 421.833,427.167 421.833,427.167 420.5,426.5 Z"/></g>
<g><path style="opacity:1" fill="#f9faf9" d="M 128.5,428.5 C 129.833,429.167 129.833,429.167 128.5,428.5 Z"/></g>
<g><path style="opacity:1" fill="#f9faf9" d="M 173.5,428.5 C 174.833,429.167 174.833,429.167 173.5,428.5 Z"/></g>
<g><path style="opacity:1" fill="#f9faf9" d="M 191.5,429.5 C 192.833,430.167 192.833,430.167 191.5,429.5 Z"/></g>
<g><path style="opacity:1" fill="#f9faf9" d="M 433.5,430.5 C 434.833,431.167 434.833,431.167 433.5,430.5 Z"/></g>
<g><path style="opacity:1" fill="#f9faf9" d="M 197.5,433.5 C 198.833,434.167 198.833,434.167 197.5,433.5 Z"/></g>
<g><path style="opacity:1" fill="#f9faf9" d="M 106.5,441.5 C 107.833,442.167 107.833,442.167 106.5,441.5 Z"/></g>
</svg>
